M48
; DRILL file {KiCad (5.1.9-0-10_14)} date Saturday, January 02, 2021 at 04:57:34 PM
; FORMAT={-:-/ absolute / inch / decimal}
; #@! TF.CreationDate,2021-01-02T16:57:34+01:00
; #@! TF.GenerationSoftware,Kicad,Pcbnew,(5.1.9-0-10_14)
; #@! TF.FileFunction,Plated,1,2,PTH
FMAT,2
INCH
T1C0.0157
T2C0.0287
T3C0.0394
T4C0.0669
%
G90
G05
T1
X5.28Y-3.3025
X6.32Y-4.0
X6.32Y-4.0875
X6.8025Y-3.5075
X6.8025Y-3.6675
X6.805Y-3.435
X6.805Y-3.78
X6.8507Y-3.7865
X6.9175Y-4.0875
X7.06Y-3.8212
X7.1975Y-3.8675
X7.245Y-3.8625
X7.3Y-3.55
X7.355Y-3.585
X7.375Y-3.865
X7.465Y-3.585
T2
X4.9174Y-3.3825
X4.9174Y-3.4825
X4.9174Y-3.5825
X4.9174Y-3.6825
X4.9174Y-3.7825
X4.9174Y-3.8825
X4.9174Y-3.9825
X4.9174Y-4.0825
X5.23Y-3.3825
X5.23Y-3.4825
X5.23Y-3.5825
X5.23Y-3.6825
X5.23Y-3.7825
X5.23Y-3.8825
X5.23Y-3.9825
X5.23Y-4.0825
X5.3275Y-3.3825
X5.3275Y-3.4825
X5.3275Y-3.5825
X5.3275Y-3.6825
X5.3275Y-3.7825
X5.3275Y-3.8825
X5.3275Y-3.9825
X5.3275Y-4.0825
X5.6401Y-3.3825
X5.6401Y-3.4825
X5.6401Y-3.5825
X5.6401Y-3.6825
X5.6401Y-3.7825
X5.6401Y-3.8825
X5.6401Y-3.9825
X5.6401Y-4.0825
X5.7375Y-3.3825
X5.7375Y-3.4825
X5.7375Y-3.5825
X5.7375Y-3.6825
X5.7375Y-3.7825
X5.7375Y-3.8825
X5.7375Y-3.9825
X5.7375Y-4.0825
X6.0501Y-3.3825
X6.0501Y-3.4825
X6.0501Y-3.5825
X6.0501Y-3.6825
X6.0501Y-3.7825
X6.0501Y-3.8825
X6.0501Y-3.9825
X6.0501Y-4.0825
X6.15Y-3.3825
X6.15Y-3.4825
X6.15Y-3.5825
X6.15Y-3.6825
X6.15Y-3.7825
X6.15Y-3.8825
X6.15Y-3.9825
X6.15Y-4.0825
X6.4626Y-3.3825
X6.4626Y-3.4825
X6.4626Y-3.5825
X6.4626Y-3.6825
X6.4626Y-3.7825
X6.4626Y-3.8825
X6.4626Y-3.9825
X6.4626Y-4.0825
T3
X7.37Y-4.13
X7.47Y-4.13
X7.57Y-4.13
X7.67Y-4.13
X7.77Y-4.13
T4
X4.7075Y-3.41
X4.7075Y-3.5659
X4.7075Y-3.7218
X4.7075Y-3.8777
X4.7075Y-4.0336
T0
M30
