%TF.GenerationSoftware,KiCad,Pcbnew,(5.1.9-0-10_14)*%
%TF.CreationDate,2021-01-14T22:54:26+01:00*%
%TF.ProjectId,diyscip-v2,64697973-6369-4702-9d76-322e6b696361,1.0*%
%TF.SameCoordinates,Original*%
%TF.FileFunction,Paste,Top*%
%TF.FilePolarity,Positive*%
%FSLAX46Y46*%
G04 Gerber Fmt 4.6, Leading zero omitted, Abs format (unit mm)*
G04 Created by KiCad (PCBNEW (5.1.9-0-10_14)) date 2021-01-14 22:54:26*
%MOMM*%
%LPD*%
G01*
G04 APERTURE LIST*
%ADD10R,1.000000X2.500000*%
%ADD11R,1.800000X1.000000*%
%ADD12R,2.000000X1.500000*%
%ADD13R,2.000000X3.800000*%
%ADD14R,0.900000X0.800000*%
G04 APERTURE END LIST*
%TO.C,TH1*%
G36*
G01*
X188804500Y-83672000D02*
X188804500Y-84222000D01*
G75*
G02*
X188604500Y-84422000I-200000J0D01*
G01*
X188204500Y-84422000D01*
G75*
G02*
X188004500Y-84222000I0J200000D01*
G01*
X188004500Y-83672000D01*
G75*
G02*
X188204500Y-83472000I200000J0D01*
G01*
X188604500Y-83472000D01*
G75*
G02*
X188804500Y-83672000I0J-200000D01*
G01*
G37*
G36*
G01*
X190454500Y-83672000D02*
X190454500Y-84222000D01*
G75*
G02*
X190254500Y-84422000I-200000J0D01*
G01*
X189854500Y-84422000D01*
G75*
G02*
X189654500Y-84222000I0J200000D01*
G01*
X189654500Y-83672000D01*
G75*
G02*
X189854500Y-83472000I200000J0D01*
G01*
X190254500Y-83472000D01*
G75*
G02*
X190454500Y-83672000I0J-200000D01*
G01*
G37*
%TD*%
%TO.C,R7*%
G36*
G01*
X197401500Y-84222000D02*
X197401500Y-83672000D01*
G75*
G02*
X197601500Y-83472000I200000J0D01*
G01*
X198001500Y-83472000D01*
G75*
G02*
X198201500Y-83672000I0J-200000D01*
G01*
X198201500Y-84222000D01*
G75*
G02*
X198001500Y-84422000I-200000J0D01*
G01*
X197601500Y-84422000D01*
G75*
G02*
X197401500Y-84222000I0J200000D01*
G01*
G37*
G36*
G01*
X195751500Y-84222000D02*
X195751500Y-83672000D01*
G75*
G02*
X195951500Y-83472000I200000J0D01*
G01*
X196351500Y-83472000D01*
G75*
G02*
X196551500Y-83672000I0J-200000D01*
G01*
X196551500Y-84222000D01*
G75*
G02*
X196351500Y-84422000I-200000J0D01*
G01*
X195951500Y-84422000D01*
G75*
G02*
X195751500Y-84222000I0J200000D01*
G01*
G37*
%TD*%
D10*
%TO.C,U2*%
X191388000Y-101473000D03*
X189388000Y-101473000D03*
X187388000Y-101473000D03*
X185388000Y-101473000D03*
X183388000Y-101473000D03*
X181388000Y-101473000D03*
X179388000Y-101473000D03*
X177388000Y-101473000D03*
D11*
X175888000Y-98873000D03*
X175888000Y-96873000D03*
X175888000Y-94873000D03*
X175888000Y-92873000D03*
X175888000Y-90873000D03*
X175888000Y-88873000D03*
D10*
X177388000Y-86273000D03*
X179388000Y-86273000D03*
X181388000Y-86273000D03*
X183388000Y-86273000D03*
X185388000Y-86273000D03*
X187388000Y-86273000D03*
X189388000Y-86273000D03*
X191388000Y-86273000D03*
%TD*%
%TO.C,R14*%
G36*
G01*
X145333000Y-84158500D02*
X145333000Y-83608500D01*
G75*
G02*
X145533000Y-83408500I200000J0D01*
G01*
X145933000Y-83408500D01*
G75*
G02*
X146133000Y-83608500I0J-200000D01*
G01*
X146133000Y-84158500D01*
G75*
G02*
X145933000Y-84358500I-200000J0D01*
G01*
X145533000Y-84358500D01*
G75*
G02*
X145333000Y-84158500I0J200000D01*
G01*
G37*
G36*
G01*
X146983000Y-84158500D02*
X146983000Y-83608500D01*
G75*
G02*
X147183000Y-83408500I200000J0D01*
G01*
X147583000Y-83408500D01*
G75*
G02*
X147783000Y-83608500I0J-200000D01*
G01*
X147783000Y-84158500D01*
G75*
G02*
X147583000Y-84358500I-200000J0D01*
G01*
X147183000Y-84358500D01*
G75*
G02*
X146983000Y-84158500I0J200000D01*
G01*
G37*
%TD*%
%TO.C,R12*%
G36*
G01*
X181758000Y-104160000D02*
X181208000Y-104160000D01*
G75*
G02*
X181008000Y-103960000I0J200000D01*
G01*
X181008000Y-103560000D01*
G75*
G02*
X181208000Y-103360000I200000J0D01*
G01*
X181758000Y-103360000D01*
G75*
G02*
X181958000Y-103560000I0J-200000D01*
G01*
X181958000Y-103960000D01*
G75*
G02*
X181758000Y-104160000I-200000J0D01*
G01*
G37*
G36*
G01*
X181758000Y-105810000D02*
X181208000Y-105810000D01*
G75*
G02*
X181008000Y-105610000I0J200000D01*
G01*
X181008000Y-105210000D01*
G75*
G02*
X181208000Y-105010000I200000J0D01*
G01*
X181758000Y-105010000D01*
G75*
G02*
X181958000Y-105210000I0J-200000D01*
G01*
X181958000Y-105610000D01*
G75*
G02*
X181758000Y-105810000I-200000J0D01*
G01*
G37*
%TD*%
%TO.C,R11*%
G36*
G01*
X183599500Y-104159000D02*
X183049500Y-104159000D01*
G75*
G02*
X182849500Y-103959000I0J200000D01*
G01*
X182849500Y-103559000D01*
G75*
G02*
X183049500Y-103359000I200000J0D01*
G01*
X183599500Y-103359000D01*
G75*
G02*
X183799500Y-103559000I0J-200000D01*
G01*
X183799500Y-103959000D01*
G75*
G02*
X183599500Y-104159000I-200000J0D01*
G01*
G37*
G36*
G01*
X183599500Y-105809000D02*
X183049500Y-105809000D01*
G75*
G02*
X182849500Y-105609000I0J200000D01*
G01*
X182849500Y-105209000D01*
G75*
G02*
X183049500Y-105009000I200000J0D01*
G01*
X183599500Y-105009000D01*
G75*
G02*
X183799500Y-105209000I0J-200000D01*
G01*
X183799500Y-105609000D01*
G75*
G02*
X183599500Y-105809000I-200000J0D01*
G01*
G37*
%TD*%
%TO.C,R9*%
G36*
G01*
X191852500Y-83672000D02*
X191852500Y-84222000D01*
G75*
G02*
X191652500Y-84422000I-200000J0D01*
G01*
X191252500Y-84422000D01*
G75*
G02*
X191052500Y-84222000I0J200000D01*
G01*
X191052500Y-83672000D01*
G75*
G02*
X191252500Y-83472000I200000J0D01*
G01*
X191652500Y-83472000D01*
G75*
G02*
X191852500Y-83672000I0J-200000D01*
G01*
G37*
G36*
G01*
X193502500Y-83672000D02*
X193502500Y-84222000D01*
G75*
G02*
X193302500Y-84422000I-200000J0D01*
G01*
X192902500Y-84422000D01*
G75*
G02*
X192702500Y-84222000I0J200000D01*
G01*
X192702500Y-83672000D01*
G75*
G02*
X192902500Y-83472000I200000J0D01*
G01*
X193302500Y-83472000D01*
G75*
G02*
X193502500Y-83672000I0J-200000D01*
G01*
G37*
%TD*%
%TO.C,R8*%
G36*
G01*
X186606500Y-84222000D02*
X186606500Y-83672000D01*
G75*
G02*
X186806500Y-83472000I200000J0D01*
G01*
X187206500Y-83472000D01*
G75*
G02*
X187406500Y-83672000I0J-200000D01*
G01*
X187406500Y-84222000D01*
G75*
G02*
X187206500Y-84422000I-200000J0D01*
G01*
X186806500Y-84422000D01*
G75*
G02*
X186606500Y-84222000I0J200000D01*
G01*
G37*
G36*
G01*
X184956500Y-84222000D02*
X184956500Y-83672000D01*
G75*
G02*
X185156500Y-83472000I200000J0D01*
G01*
X185556500Y-83472000D01*
G75*
G02*
X185756500Y-83672000I0J-200000D01*
G01*
X185756500Y-84222000D01*
G75*
G02*
X185556500Y-84422000I-200000J0D01*
G01*
X185156500Y-84422000D01*
G75*
G02*
X184956500Y-84222000I0J200000D01*
G01*
G37*
%TD*%
%TO.C,C3*%
G36*
G01*
X169524500Y-104906000D02*
X169524500Y-105406000D01*
G75*
G02*
X169299500Y-105631000I-225000J0D01*
G01*
X168849500Y-105631000D01*
G75*
G02*
X168624500Y-105406000I0J225000D01*
G01*
X168624500Y-104906000D01*
G75*
G02*
X168849500Y-104681000I225000J0D01*
G01*
X169299500Y-104681000D01*
G75*
G02*
X169524500Y-104906000I0J-225000D01*
G01*
G37*
G36*
G01*
X171074500Y-104906000D02*
X171074500Y-105406000D01*
G75*
G02*
X170849500Y-105631000I-225000J0D01*
G01*
X170399500Y-105631000D01*
G75*
G02*
X170174500Y-105406000I0J225000D01*
G01*
X170174500Y-104906000D01*
G75*
G02*
X170399500Y-104681000I225000J0D01*
G01*
X170849500Y-104681000D01*
G75*
G02*
X171074500Y-104906000I0J-225000D01*
G01*
G37*
%TD*%
D12*
%TO.C,U1*%
X166878000Y-98270000D03*
X166878000Y-102870000D03*
X166878000Y-100570000D03*
D13*
X173178000Y-100570000D03*
%TD*%
%TO.C,R13*%
G36*
G01*
X126638500Y-83608500D02*
X126638500Y-84158500D01*
G75*
G02*
X126438500Y-84358500I-200000J0D01*
G01*
X126038500Y-84358500D01*
G75*
G02*
X125838500Y-84158500I0J200000D01*
G01*
X125838500Y-83608500D01*
G75*
G02*
X126038500Y-83408500I200000J0D01*
G01*
X126438500Y-83408500D01*
G75*
G02*
X126638500Y-83608500I0J-200000D01*
G01*
G37*
G36*
G01*
X128288500Y-83608500D02*
X128288500Y-84158500D01*
G75*
G02*
X128088500Y-84358500I-200000J0D01*
G01*
X127688500Y-84358500D01*
G75*
G02*
X127488500Y-84158500I0J200000D01*
G01*
X127488500Y-83608500D01*
G75*
G02*
X127688500Y-83408500I200000J0D01*
G01*
X128088500Y-83408500D01*
G75*
G02*
X128288500Y-83608500I0J-200000D01*
G01*
G37*
%TD*%
%TO.C,R10*%
G36*
G01*
X177819000Y-103484000D02*
X177819000Y-104034000D01*
G75*
G02*
X177619000Y-104234000I-200000J0D01*
G01*
X177219000Y-104234000D01*
G75*
G02*
X177019000Y-104034000I0J200000D01*
G01*
X177019000Y-103484000D01*
G75*
G02*
X177219000Y-103284000I200000J0D01*
G01*
X177619000Y-103284000D01*
G75*
G02*
X177819000Y-103484000I0J-200000D01*
G01*
G37*
G36*
G01*
X179469000Y-103484000D02*
X179469000Y-104034000D01*
G75*
G02*
X179269000Y-104234000I-200000J0D01*
G01*
X178869000Y-104234000D01*
G75*
G02*
X178669000Y-104034000I0J200000D01*
G01*
X178669000Y-103484000D01*
G75*
G02*
X178869000Y-103284000I200000J0D01*
G01*
X179269000Y-103284000D01*
G75*
G02*
X179469000Y-103484000I0J-200000D01*
G01*
G37*
%TD*%
%TO.C,R6*%
G36*
G01*
X171725000Y-85237000D02*
X171175000Y-85237000D01*
G75*
G02*
X170975000Y-85037000I0J200000D01*
G01*
X170975000Y-84637000D01*
G75*
G02*
X171175000Y-84437000I200000J0D01*
G01*
X171725000Y-84437000D01*
G75*
G02*
X171925000Y-84637000I0J-200000D01*
G01*
X171925000Y-85037000D01*
G75*
G02*
X171725000Y-85237000I-200000J0D01*
G01*
G37*
G36*
G01*
X171725000Y-86887000D02*
X171175000Y-86887000D01*
G75*
G02*
X170975000Y-86687000I0J200000D01*
G01*
X170975000Y-86287000D01*
G75*
G02*
X171175000Y-86087000I200000J0D01*
G01*
X171725000Y-86087000D01*
G75*
G02*
X171925000Y-86287000I0J-200000D01*
G01*
X171925000Y-86687000D01*
G75*
G02*
X171725000Y-86887000I-200000J0D01*
G01*
G37*
%TD*%
%TO.C,R5*%
G36*
G01*
X171725000Y-88538000D02*
X171175000Y-88538000D01*
G75*
G02*
X170975000Y-88338000I0J200000D01*
G01*
X170975000Y-87938000D01*
G75*
G02*
X171175000Y-87738000I200000J0D01*
G01*
X171725000Y-87738000D01*
G75*
G02*
X171925000Y-87938000I0J-200000D01*
G01*
X171925000Y-88338000D01*
G75*
G02*
X171725000Y-88538000I-200000J0D01*
G01*
G37*
G36*
G01*
X171725000Y-90188000D02*
X171175000Y-90188000D01*
G75*
G02*
X170975000Y-89988000I0J200000D01*
G01*
X170975000Y-89588000D01*
G75*
G02*
X171175000Y-89388000I200000J0D01*
G01*
X171725000Y-89388000D01*
G75*
G02*
X171925000Y-89588000I0J-200000D01*
G01*
X171925000Y-89988000D01*
G75*
G02*
X171725000Y-90188000I-200000J0D01*
G01*
G37*
%TD*%
%TO.C,R4*%
G36*
G01*
X171725000Y-91904000D02*
X171175000Y-91904000D01*
G75*
G02*
X170975000Y-91704000I0J200000D01*
G01*
X170975000Y-91304000D01*
G75*
G02*
X171175000Y-91104000I200000J0D01*
G01*
X171725000Y-91104000D01*
G75*
G02*
X171925000Y-91304000I0J-200000D01*
G01*
X171925000Y-91704000D01*
G75*
G02*
X171725000Y-91904000I-200000J0D01*
G01*
G37*
G36*
G01*
X171725000Y-93554000D02*
X171175000Y-93554000D01*
G75*
G02*
X170975000Y-93354000I0J200000D01*
G01*
X170975000Y-92954000D01*
G75*
G02*
X171175000Y-92754000I200000J0D01*
G01*
X171725000Y-92754000D01*
G75*
G02*
X171925000Y-92954000I0J-200000D01*
G01*
X171925000Y-93354000D01*
G75*
G02*
X171725000Y-93554000I-200000J0D01*
G01*
G37*
%TD*%
%TO.C,R3*%
G36*
G01*
X166645000Y-86253000D02*
X166095000Y-86253000D01*
G75*
G02*
X165895000Y-86053000I0J200000D01*
G01*
X165895000Y-85653000D01*
G75*
G02*
X166095000Y-85453000I200000J0D01*
G01*
X166645000Y-85453000D01*
G75*
G02*
X166845000Y-85653000I0J-200000D01*
G01*
X166845000Y-86053000D01*
G75*
G02*
X166645000Y-86253000I-200000J0D01*
G01*
G37*
G36*
G01*
X166645000Y-87903000D02*
X166095000Y-87903000D01*
G75*
G02*
X165895000Y-87703000I0J200000D01*
G01*
X165895000Y-87303000D01*
G75*
G02*
X166095000Y-87103000I200000J0D01*
G01*
X166645000Y-87103000D01*
G75*
G02*
X166845000Y-87303000I0J-200000D01*
G01*
X166845000Y-87703000D01*
G75*
G02*
X166645000Y-87903000I-200000J0D01*
G01*
G37*
%TD*%
%TO.C,R2*%
G36*
G01*
X166645000Y-89300000D02*
X166095000Y-89300000D01*
G75*
G02*
X165895000Y-89100000I0J200000D01*
G01*
X165895000Y-88700000D01*
G75*
G02*
X166095000Y-88500000I200000J0D01*
G01*
X166645000Y-88500000D01*
G75*
G02*
X166845000Y-88700000I0J-200000D01*
G01*
X166845000Y-89100000D01*
G75*
G02*
X166645000Y-89300000I-200000J0D01*
G01*
G37*
G36*
G01*
X166645000Y-90950000D02*
X166095000Y-90950000D01*
G75*
G02*
X165895000Y-90750000I0J200000D01*
G01*
X165895000Y-90350000D01*
G75*
G02*
X166095000Y-90150000I200000J0D01*
G01*
X166645000Y-90150000D01*
G75*
G02*
X166845000Y-90350000I0J-200000D01*
G01*
X166845000Y-90750000D01*
G75*
G02*
X166645000Y-90950000I-200000J0D01*
G01*
G37*
%TD*%
%TO.C,R1*%
G36*
G01*
X166645000Y-92349000D02*
X166095000Y-92349000D01*
G75*
G02*
X165895000Y-92149000I0J200000D01*
G01*
X165895000Y-91749000D01*
G75*
G02*
X166095000Y-91549000I200000J0D01*
G01*
X166645000Y-91549000D01*
G75*
G02*
X166845000Y-91749000I0J-200000D01*
G01*
X166845000Y-92149000D01*
G75*
G02*
X166645000Y-92349000I-200000J0D01*
G01*
G37*
G36*
G01*
X166645000Y-93999000D02*
X166095000Y-93999000D01*
G75*
G02*
X165895000Y-93799000I0J200000D01*
G01*
X165895000Y-93399000D01*
G75*
G02*
X166095000Y-93199000I200000J0D01*
G01*
X166645000Y-93199000D01*
G75*
G02*
X166845000Y-93399000I0J-200000D01*
G01*
X166845000Y-93799000D01*
G75*
G02*
X166645000Y-93999000I-200000J0D01*
G01*
G37*
%TD*%
D14*
%TO.C,Q3*%
X167910000Y-85344000D03*
X169910000Y-84394000D03*
X169910000Y-86294000D03*
%TD*%
%TO.C,Q2*%
X167926000Y-88961000D03*
X169926000Y-88011000D03*
X169926000Y-89911000D03*
%TD*%
%TO.C,Q1*%
X167910000Y-92583000D03*
X169910000Y-91633000D03*
X169910000Y-93533000D03*
%TD*%
%TO.C,C4*%
G36*
G01*
X172831999Y-94069000D02*
X174132001Y-94069000D01*
G75*
G02*
X174382000Y-94318999I0J-249999D01*
G01*
X174382000Y-94969001D01*
G75*
G02*
X174132001Y-95219000I-249999J0D01*
G01*
X172831999Y-95219000D01*
G75*
G02*
X172582000Y-94969001I0J249999D01*
G01*
X172582000Y-94318999D01*
G75*
G02*
X172831999Y-94069000I249999J0D01*
G01*
G37*
G36*
G01*
X172831999Y-91119000D02*
X174132001Y-91119000D01*
G75*
G02*
X174382000Y-91368999I0J-249999D01*
G01*
X174382000Y-92019001D01*
G75*
G02*
X174132001Y-92269000I-249999J0D01*
G01*
X172831999Y-92269000D01*
G75*
G02*
X172582000Y-92019001I0J249999D01*
G01*
X172582000Y-91368999D01*
G75*
G02*
X172831999Y-91119000I249999J0D01*
G01*
G37*
%TD*%
%TO.C,C2*%
G36*
G01*
X171700000Y-95052000D02*
X171200000Y-95052000D01*
G75*
G02*
X170975000Y-94827000I0J225000D01*
G01*
X170975000Y-94377000D01*
G75*
G02*
X171200000Y-94152000I225000J0D01*
G01*
X171700000Y-94152000D01*
G75*
G02*
X171925000Y-94377000I0J-225000D01*
G01*
X171925000Y-94827000D01*
G75*
G02*
X171700000Y-95052000I-225000J0D01*
G01*
G37*
G36*
G01*
X171700000Y-96602000D02*
X171200000Y-96602000D01*
G75*
G02*
X170975000Y-96377000I0J225000D01*
G01*
X170975000Y-95927000D01*
G75*
G02*
X171200000Y-95702000I225000J0D01*
G01*
X171700000Y-95702000D01*
G75*
G02*
X171925000Y-95927000I0J-225000D01*
G01*
X171925000Y-96377000D01*
G75*
G02*
X171700000Y-96602000I-225000J0D01*
G01*
G37*
%TD*%
%TO.C,C1*%
G36*
G01*
X168872000Y-96281001D02*
X168872000Y-94980999D01*
G75*
G02*
X169121999Y-94731000I249999J0D01*
G01*
X169772001Y-94731000D01*
G75*
G02*
X170022000Y-94980999I0J-249999D01*
G01*
X170022000Y-96281001D01*
G75*
G02*
X169772001Y-96531000I-249999J0D01*
G01*
X169121999Y-96531000D01*
G75*
G02*
X168872000Y-96281001I0J249999D01*
G01*
G37*
G36*
G01*
X165922000Y-96281001D02*
X165922000Y-94980999D01*
G75*
G02*
X166171999Y-94731000I249999J0D01*
G01*
X166822001Y-94731000D01*
G75*
G02*
X167072000Y-94980999I0J-249999D01*
G01*
X167072000Y-96281001D01*
G75*
G02*
X166822001Y-96531000I-249999J0D01*
G01*
X166171999Y-96531000D01*
G75*
G02*
X165922000Y-96281001I0J249999D01*
G01*
G37*
%TD*%
M02*
