%TF.GenerationSoftware,KiCad,Pcbnew,(5.1.9-0-10_14)*%
%TF.CreationDate,2021-01-02T16:57:57+01:00*%
%TF.ProjectId,diyscip-v2,64697973-6369-4702-9d76-322e6b696361,1.0*%
%TF.SameCoordinates,Original*%
%TF.FileFunction,Copper,L2,Bot*%
%TF.FilePolarity,Positive*%
%FSLAX46Y46*%
G04 Gerber Fmt 4.6, Leading zero omitted, Abs format (unit mm)*
G04 Created by KiCad (PCBNEW (5.1.9-0-10_14)) date 2021-01-02 16:57:57*
%MOMM*%
%LPD*%
G01*
G04 APERTURE LIST*
%TA.AperFunction,ComponentPad*%
%ADD10O,1.700000X1.700000*%
%TD*%
%TA.AperFunction,ComponentPad*%
%ADD11R,1.700000X1.700000*%
%TD*%
%TA.AperFunction,ComponentPad*%
%ADD12C,2.700000*%
%TD*%
%TA.AperFunction,ComponentPad*%
%ADD13C,1.130000*%
%TD*%
%TA.AperFunction,ComponentPad*%
%ADD14R,1.130000X1.130000*%
%TD*%
%TA.AperFunction,ViaPad*%
%ADD15C,0.800000*%
%TD*%
%TA.AperFunction,Conductor*%
%ADD16C,0.250000*%
%TD*%
G04 APERTURE END LIST*
D10*
%TO.P,J3,5*%
%TO.N,GND*%
X187198000Y-104902000D03*
%TO.P,J3,4*%
%TO.N,+3V3*%
X189738000Y-104902000D03*
%TO.P,J3,3*%
%TO.N,Net-(IC2-Pad6)*%
X192278000Y-104902000D03*
%TO.P,J3,2*%
%TO.N,Net-(J3-Pad2)*%
X194818000Y-104902000D03*
D11*
%TO.P,J3,1*%
%TO.N,Net-(J3-Pad1)*%
X197358000Y-104902000D03*
%TD*%
D12*
%TO.P,J1,5*%
%TO.N,+5V*%
X119570500Y-102454000D03*
%TO.P,J1,4*%
%TO.N,GND*%
X119570500Y-98494000D03*
%TO.P,J1,3*%
%TO.N,DATA_TTL*%
X119570500Y-94534000D03*
%TO.P,J1,2*%
%TO.N,HOLD_TTL*%
X119570500Y-90574000D03*
%TO.P,J1,1*%
%TO.N,CLK_TTL*%
%TA.AperFunction,ComponentPad*%
G36*
G01*
X118470501Y-85264000D02*
X120670499Y-85264000D01*
G75*
G02*
X120920500Y-85514001I0J-250001D01*
G01*
X120920500Y-87713999D01*
G75*
G02*
X120670499Y-87964000I-250001J0D01*
G01*
X118470501Y-87964000D01*
G75*
G02*
X118220500Y-87713999I0J250001D01*
G01*
X118220500Y-85514001D01*
G75*
G02*
X118470501Y-85264000I250001J0D01*
G01*
G37*
%TD.AperFunction*%
%TD*%
D13*
%TO.P,IC4,16*%
%TO.N,+5V*%
X124902000Y-103695500D03*
%TO.P,IC4,15*%
%TO.N,Net-(IC2-Pad13)*%
X124902000Y-101155500D03*
%TO.P,IC4,14*%
%TO.N,Net-(IC3-Pad9)*%
X124902000Y-98615500D03*
%TO.P,IC4,13*%
%TO.N,GND*%
X124902000Y-96075500D03*
%TO.P,IC4,12*%
%TO.N,HOLD_TTL*%
X124902000Y-93535500D03*
%TO.P,IC4,11*%
%TO.N,CLK_TTL*%
X124902000Y-90995500D03*
%TO.P,IC4,10*%
%TO.N,Net-(IC4-Pad10)*%
X124902000Y-88455500D03*
%TO.P,IC4,9*%
%TO.N,Net-(IC4-Pad9)*%
X124902000Y-85915500D03*
%TO.P,IC4,8*%
%TO.N,GND*%
X132842000Y-85915500D03*
%TO.P,IC4,7*%
%TO.N,Net-(IC2-Pad4)*%
X132842000Y-88455500D03*
%TO.P,IC4,6*%
%TO.N,Net-(IC2-Pad2)*%
X132842000Y-90995500D03*
%TO.P,IC4,5*%
%TO.N,Net-(IC2-Pad5)*%
X132842000Y-93535500D03*
%TO.P,IC4,4*%
%TO.N,Net-(IC2-Pad1)*%
X132842000Y-96075500D03*
%TO.P,IC4,3*%
%TO.N,Net-(IC2-Pad12)*%
X132842000Y-98615500D03*
%TO.P,IC4,2*%
%TO.N,Net-(IC2-Pad15)*%
X132842000Y-101155500D03*
D14*
%TO.P,IC4,1*%
%TO.N,Net-(IC2-Pad14)*%
X132842000Y-103695500D03*
%TD*%
D13*
%TO.P,IC3,16*%
%TO.N,+5V*%
X145732500Y-103695500D03*
%TO.P,IC3,15*%
%TO.N,Net-(IC1-Pad13)*%
X145732500Y-101155500D03*
%TO.P,IC3,14*%
%TO.N,DATA_TTL*%
X145732500Y-98615500D03*
%TO.P,IC3,13*%
%TO.N,GND*%
X145732500Y-96075500D03*
%TO.P,IC3,12*%
%TO.N,HOLD_TTL*%
X145732500Y-93535500D03*
%TO.P,IC3,11*%
%TO.N,CLK_TTL*%
X145732500Y-90995500D03*
%TO.P,IC3,10*%
%TO.N,Net-(IC3-Pad10)*%
X145732500Y-88455500D03*
%TO.P,IC3,9*%
%TO.N,Net-(IC3-Pad9)*%
X145732500Y-85915500D03*
%TO.P,IC3,8*%
%TO.N,GND*%
X153672500Y-85915500D03*
%TO.P,IC3,7*%
%TO.N,Net-(IC1-Pad4)*%
X153672500Y-88455500D03*
%TO.P,IC3,6*%
%TO.N,Net-(IC1-Pad2)*%
X153672500Y-90995500D03*
%TO.P,IC3,5*%
%TO.N,Net-(IC1-Pad5)*%
X153672500Y-93535500D03*
%TO.P,IC3,4*%
%TO.N,Net-(IC1-Pad1)*%
X153672500Y-96075500D03*
%TO.P,IC3,3*%
%TO.N,Net-(IC1-Pad12)*%
X153672500Y-98615500D03*
%TO.P,IC3,2*%
%TO.N,Net-(IC1-Pad15)*%
X153672500Y-101155500D03*
D14*
%TO.P,IC3,1*%
%TO.N,Net-(IC1-Pad14)*%
X153672500Y-103695500D03*
%TD*%
D13*
%TO.P,IC2,16*%
%TO.N,+5V*%
X135318500Y-103695500D03*
%TO.P,IC2,15*%
%TO.N,Net-(IC2-Pad15)*%
X135318500Y-101155500D03*
%TO.P,IC2,14*%
%TO.N,Net-(IC2-Pad14)*%
X135318500Y-98615500D03*
%TO.P,IC2,13*%
%TO.N,Net-(IC2-Pad13)*%
X135318500Y-96075500D03*
%TO.P,IC2,12*%
%TO.N,Net-(IC2-Pad12)*%
X135318500Y-93535500D03*
%TO.P,IC2,11*%
%TO.N,Net-(IC1-Pad11)*%
X135318500Y-90995500D03*
%TO.P,IC2,10*%
%TO.N,Net-(IC1-Pad10)*%
X135318500Y-88455500D03*
%TO.P,IC2,9*%
%TO.N,Net-(IC1-Pad9)*%
X135318500Y-85915500D03*
%TO.P,IC2,8*%
%TO.N,GND*%
X143258500Y-85915500D03*
%TO.P,IC2,7*%
X143258500Y-88455500D03*
%TO.P,IC2,6*%
%TO.N,Net-(IC2-Pad6)*%
X143258500Y-90995500D03*
%TO.P,IC2,5*%
%TO.N,Net-(IC2-Pad5)*%
X143258500Y-93535500D03*
%TO.P,IC2,4*%
%TO.N,Net-(IC2-Pad4)*%
X143258500Y-96075500D03*
%TO.P,IC2,3*%
%TO.N,Net-(IC1-Pad3)*%
X143258500Y-98615500D03*
%TO.P,IC2,2*%
%TO.N,Net-(IC2-Pad2)*%
X143258500Y-101155500D03*
D14*
%TO.P,IC2,1*%
%TO.N,Net-(IC2-Pad1)*%
X143258500Y-103695500D03*
%TD*%
D13*
%TO.P,IC1,16*%
%TO.N,+5V*%
X156210000Y-103695500D03*
%TO.P,IC1,15*%
%TO.N,Net-(IC1-Pad15)*%
X156210000Y-101155500D03*
%TO.P,IC1,14*%
%TO.N,Net-(IC1-Pad14)*%
X156210000Y-98615500D03*
%TO.P,IC1,13*%
%TO.N,Net-(IC1-Pad13)*%
X156210000Y-96075500D03*
%TO.P,IC1,12*%
%TO.N,Net-(IC1-Pad12)*%
X156210000Y-93535500D03*
%TO.P,IC1,11*%
%TO.N,Net-(IC1-Pad11)*%
X156210000Y-90995500D03*
%TO.P,IC1,10*%
%TO.N,Net-(IC1-Pad10)*%
X156210000Y-88455500D03*
%TO.P,IC1,9*%
%TO.N,Net-(IC1-Pad9)*%
X156210000Y-85915500D03*
%TO.P,IC1,8*%
%TO.N,GND*%
X164150000Y-85915500D03*
%TO.P,IC1,7*%
X164150000Y-88455500D03*
%TO.P,IC1,6*%
%TO.N,Net-(IC1-Pad6)*%
X164150000Y-90995500D03*
%TO.P,IC1,5*%
%TO.N,Net-(IC1-Pad5)*%
X164150000Y-93535500D03*
%TO.P,IC1,4*%
%TO.N,Net-(IC1-Pad4)*%
X164150000Y-96075500D03*
%TO.P,IC1,3*%
%TO.N,Net-(IC1-Pad3)*%
X164150000Y-98615500D03*
%TO.P,IC1,2*%
%TO.N,Net-(IC1-Pad2)*%
X164150000Y-101155500D03*
D14*
%TO.P,IC1,1*%
%TO.N,Net-(IC1-Pad1)*%
X164150000Y-103695500D03*
%TD*%
D15*
%TO.N,GND*%
X172847000Y-96012000D03*
X189611000Y-91059000D03*
X175704500Y-103822500D03*
%TO.N,+5V*%
X134112000Y-83883500D03*
%TO.N,+3V3*%
X172784000Y-93154000D03*
X172784000Y-89091000D03*
X172847000Y-87249000D03*
X174007085Y-96176770D03*
X186817000Y-91059000D03*
%TO.N,Net-(IC1-Pad11)*%
X160528000Y-101600000D03*
X160528000Y-103822500D03*
X187325000Y-98171000D03*
%TO.N,Net-(IC1-Pad10)*%
X184023000Y-98107500D03*
%TO.N,Net-(IC1-Pad9)*%
X179324000Y-97059490D03*
%TO.N,Net-(IC1-Pad6)*%
X185420000Y-90170000D03*
%TO.N,Net-(IC2-Pad6)*%
X182816500Y-98234500D03*
%TD*%
D16*
%TO.N,GND*%
X144148501Y-85025499D02*
X152782499Y-85025499D01*
X152782499Y-85025499D02*
X153672500Y-85915500D01*
X143258500Y-85915500D02*
X144148501Y-85025499D01*
X163259999Y-85025499D02*
X164150000Y-85915500D01*
X154562501Y-85025499D02*
X163259999Y-85025499D01*
X153672500Y-85915500D02*
X154562501Y-85025499D01*
X189611000Y-91059000D02*
X181794510Y-83242510D01*
X181794510Y-83242510D02*
X164788490Y-83242510D01*
X164150000Y-83881000D02*
X164788490Y-83242510D01*
X164150000Y-85915500D02*
X164150000Y-83881000D01*
X164150000Y-85915500D02*
X164150000Y-88455500D01*
X189611000Y-102489000D02*
X189611000Y-91059000D01*
X187198000Y-104902000D02*
X189611000Y-102489000D01*
%TO.N,+5V*%
X118110000Y-83883500D02*
X134112000Y-83883500D01*
X117895490Y-100778990D02*
X119570500Y-102454000D01*
X117895490Y-100778990D02*
X117895490Y-100750490D01*
X117895490Y-100750490D02*
X116713000Y-99568000D01*
X116713000Y-99568000D02*
X116713000Y-85280500D01*
X116713000Y-85280500D02*
X118110000Y-83883500D01*
%TO.N,+3V3*%
X172784000Y-93154000D02*
X172784000Y-89091000D01*
X172847000Y-89028000D02*
X172784000Y-89091000D01*
X172847000Y-87249000D02*
X172847000Y-89028000D01*
X172784000Y-93154000D02*
X172784000Y-93790000D01*
X172784000Y-93790000D02*
X173990000Y-94996000D01*
X173990000Y-96159685D02*
X174007085Y-96176770D01*
X173990000Y-94996000D02*
X173990000Y-96159685D01*
X174752000Y-91059000D02*
X186817000Y-91059000D01*
X172784000Y-89091000D02*
X174752000Y-91059000D01*
%TO.N,Net-(IC1-Pad11)*%
X135318500Y-90995500D02*
X136518489Y-92195489D01*
X144842499Y-93346001D02*
X144842499Y-93108299D01*
X143762999Y-94425501D02*
X144842499Y-93346001D01*
X142831299Y-94425501D02*
X143762999Y-94425501D01*
X142368499Y-93962701D02*
X142831299Y-94425501D01*
X142368499Y-93535589D02*
X142368499Y-93962701D01*
X141028399Y-92195489D02*
X142368499Y-93535589D01*
X136518489Y-92195489D02*
X141028399Y-92195489D01*
X153245299Y-94425501D02*
X156637201Y-94425501D01*
X156637201Y-94425501D02*
X157100001Y-93962701D01*
X151465297Y-92645499D02*
X153245299Y-94425501D01*
X145305299Y-92645499D02*
X151465297Y-92645499D01*
X144842499Y-93108299D02*
X145305299Y-92645499D01*
X157100001Y-91885501D02*
X156210000Y-90995500D01*
X157100001Y-93962701D02*
X157100001Y-91885501D01*
X156210000Y-97282000D02*
X160528000Y-101600000D01*
X156099298Y-97282000D02*
X156210000Y-97282000D01*
X155319999Y-96502701D02*
X156099298Y-97282000D01*
X155319999Y-91885501D02*
X155319999Y-96502701D01*
X156210000Y-90995500D02*
X155319999Y-91885501D01*
X161741011Y-105035511D02*
X180333489Y-105035511D01*
X160528000Y-103822500D02*
X161741011Y-105035511D01*
X187198000Y-98171000D02*
X187325000Y-98171000D01*
X180333489Y-105035511D02*
X187198000Y-98171000D01*
%TO.N,Net-(IC1-Pad10)*%
X155319999Y-87565499D02*
X156210000Y-88455500D01*
X136208501Y-87565499D02*
X155319999Y-87565499D01*
X135318500Y-88455500D02*
X136208501Y-87565499D01*
X159962010Y-92207510D02*
X159962010Y-93285600D01*
X156210000Y-88455500D02*
X159962010Y-92207510D01*
X165983899Y-97275489D02*
X166492900Y-97784490D01*
X163951900Y-97275490D02*
X165983899Y-97275489D01*
X159962010Y-93285600D02*
X163951900Y-97275490D01*
X166492900Y-97784490D02*
X182193508Y-97784490D01*
X182468499Y-97509499D02*
X183424999Y-97509499D01*
X182193508Y-97784490D02*
X182468499Y-97509499D01*
X183424999Y-97509499D02*
X184023000Y-98107500D01*
%TO.N,Net-(IC1-Pad9)*%
X155319999Y-86805501D02*
X156210000Y-85915500D01*
X136208501Y-86805501D02*
X155319999Y-86805501D01*
X135318500Y-85915500D02*
X136208501Y-86805501D01*
X160412019Y-91067199D02*
X166679300Y-97334480D01*
X160412019Y-90117519D02*
X160412019Y-91067199D01*
X156210000Y-85915500D02*
X160412019Y-90117519D01*
X166679300Y-97334480D02*
X166795280Y-97218500D01*
X179164990Y-97218500D02*
X179324000Y-97059490D01*
X166795280Y-97218500D02*
X179164990Y-97218500D01*
%TO.N,Net-(IC1-Pad6)*%
X168621501Y-86523999D02*
X173195001Y-86523999D01*
X164150000Y-90995500D02*
X168621501Y-86523999D01*
X176628499Y-88236499D02*
X178562000Y-90170000D01*
X174907501Y-88236499D02*
X176628499Y-88236499D01*
X173195001Y-86523999D02*
X174907501Y-88236499D01*
X178562000Y-90170000D02*
X185420000Y-90170000D01*
%TO.N,Net-(IC1-Pad3)*%
X144148501Y-97725499D02*
X146159701Y-97725499D01*
X146159701Y-97725499D02*
X150050500Y-101616298D01*
X143258500Y-98615500D02*
X144148501Y-97725499D01*
X150050500Y-101616298D02*
X150066798Y-101616298D01*
X165040001Y-99505501D02*
X164150000Y-98615500D01*
X165040001Y-104520501D02*
X165040001Y-99505501D01*
X163324999Y-104585501D02*
X164975001Y-104585501D01*
X161544997Y-102805499D02*
X163324999Y-104585501D01*
X164975001Y-104585501D02*
X165040001Y-104520501D01*
X151255999Y-102805499D02*
X161544997Y-102805499D01*
X150066798Y-101616298D02*
X151255999Y-102805499D01*
%TO.N,Net-(IC1-Pad2)*%
X159061992Y-96067492D02*
X164150000Y-101155500D01*
X159061992Y-92580312D02*
X159061992Y-96067492D01*
X156339690Y-89858010D02*
X159061992Y-92580312D01*
X154809990Y-89858010D02*
X156339690Y-89858010D01*
X153672500Y-90995500D02*
X154809990Y-89858010D01*
%TO.N,Net-(IC1-Pad1)*%
X153218989Y-102355489D02*
X162809989Y-102355489D01*
X152782499Y-101918999D02*
X153218989Y-102355489D01*
X152782499Y-96965501D02*
X152782499Y-101918999D01*
X162809989Y-102355489D02*
X164150000Y-103695500D01*
X153672500Y-96075500D02*
X152782499Y-96965501D01*
%TO.N,Net-(IC2-Pad12)*%
X135318500Y-93535500D02*
X134048500Y-94805500D01*
X134048500Y-97409000D02*
X132842000Y-98615500D01*
X134048500Y-94805500D02*
X134048500Y-97409000D01*
%TO.N,Net-(IC2-Pad6)*%
X143258500Y-90995500D02*
X144148501Y-91885501D01*
X163765499Y-97725499D02*
X165797499Y-97725499D01*
X166306500Y-98234500D02*
X174307500Y-98234500D01*
X174307500Y-98234500D02*
X182816500Y-98234500D01*
X165797499Y-97725499D02*
X166306500Y-98234500D01*
X173996498Y-98234500D02*
X174307500Y-98234500D01*
X144148501Y-91885501D02*
X146747499Y-91885501D01*
X149287499Y-89345501D02*
X154099701Y-89345501D01*
X146747499Y-91885501D02*
X149287499Y-89345501D01*
X154162200Y-89408000D02*
X156526090Y-89408000D01*
X154099701Y-89345501D02*
X154162200Y-89408000D01*
X159512001Y-93472001D02*
X163765501Y-97725499D01*
X159512000Y-92393910D02*
X159512001Y-93472001D01*
X156526090Y-89408000D02*
X159512000Y-92393910D01*
X163765501Y-97725499D02*
X164592001Y-97725498D01*
%TO.N,DATA_TTL*%
X121245501Y-99147501D02*
X124269500Y-102171500D01*
X121245501Y-96209001D02*
X121245501Y-99147501D01*
X119570500Y-94534000D02*
X121245501Y-96209001D01*
X143559702Y-102171500D02*
X144842499Y-100888703D01*
X144842499Y-99505501D02*
X145732500Y-98615500D01*
X144842499Y-100888703D02*
X144842499Y-99505501D01*
X124269500Y-102171500D02*
X143559702Y-102171500D01*
%TO.N,HOLD_TTL*%
X124902000Y-93535500D02*
X128460500Y-93535500D01*
X128460500Y-93535500D02*
X129350501Y-92645499D01*
X122532000Y-93535500D02*
X119570500Y-90574000D01*
X124902000Y-93535500D02*
X122532000Y-93535500D01*
X129350501Y-92645499D02*
X140841999Y-92645499D01*
X146622501Y-94425501D02*
X145732500Y-93535500D01*
X146622501Y-96502701D02*
X146622501Y-94425501D01*
X146159701Y-96965501D02*
X146622501Y-96502701D01*
X142831299Y-96965501D02*
X146159701Y-96965501D01*
X140841999Y-94976201D02*
X142831299Y-96965501D01*
X140841999Y-92645499D02*
X140841999Y-94976201D01*
%TO.N,CLK_TTL*%
X120520500Y-86614000D02*
X124902000Y-90995500D01*
X119570500Y-86614000D02*
X120520500Y-86614000D01*
X144843500Y-90106500D02*
X145732500Y-90995500D01*
X143685701Y-90105499D02*
X143686702Y-90106500D01*
X124902000Y-90995500D02*
X128206500Y-90995500D01*
X143686702Y-90106500D02*
X144843500Y-90106500D01*
X129096501Y-90105499D02*
X143685701Y-90105499D01*
X128206500Y-90995500D02*
X129096501Y-90105499D01*
%TD*%
M02*
